<svg xmlns="http://www.w3.org/2000/svg" viewBox="0 0 1033.73 160.99"><defs><style>.cls-1,.cls-3{fill:#8bbf43;}.cls-2{fill:#fff;}.cls-3{font-size:44px;font-family:Roboto-Bold, Roboto;font-weight:700;letter-spacing:0.07em;}.cls-4{letter-spacing:0.06em;}.cls-5{letter-spacing:0.06em;}.cls-6{letter-spacing:0.06em;}</style></defs><g id="colours"><g id="Logo-Border-5mm1"><g id="Layer-1"><path class="cls-1" d="M20.1,14.09C21.38,12.79,35.21-.56,61.22,0L273.05.31h0s54.76.25,71.36,61.22v0s10.29,41.08-20.89,75.55a59.55,59.55,0,0,1-7.21,6.64c-19.13,15.25-44.71,20.69-68.94,15.09L51.16,113.48c-2.58-.39-41.88-7-50.15-46.39C.67,65.7-6,36.7,20.1,14.09Z"/><path class="cls-2" d="M241.59,95.58c.17-.67-.28-1-.71-.79-2.75,2.36-5.6,4.62-8.18,7.16a2.6,2.6,0,0,0-.21,3.11,2.69,2.69,0,0,0,3,.55,8.7,8.7,0,0,0,3.49-3.14,49,49,0,0,0,2.57-6.89M276.31,67c-.11.24-.49,1.14,1.28.87,5.58-1,8.67-4.73,10.24-9.9a4.29,4.29,0,0,0-.07-3.05,1.64,1.64,0,0,0-1.23-.81,3.47,3.47,0,0,0-3.3,1.27c-2.54,3.72-4.65,7.72-6.92,11.62M236,75.12a5.58,5.58,0,0,0,.71,3.9,2.51,2.51,0,0,0,.87.9c.91.52,2.66,0,3.84-.5a8.4,8.4,0,0,0,2.65-2.31c4.49-5,5.51-11.34,6.93-17.55.46-2,1.16-4-1.48-5.08a4.54,4.54,0,0,0-5.91,1.68,43.39,43.39,0,0,0-7.61,19m-104.41.6a5.23,5.23,0,0,0,.49,3,2.38,2.38,0,0,0,.94,1.08,4.89,4.89,0,0,0,3.86-.34,7.27,7.27,0,0,0,3.35-3.07c2.32-5.52,4.45-11.13,6.37-16.79.6-1.76,1.24-4.08-1.46-5.16s-4.57-.27-6.14,2a42.73,42.73,0,0,0-7.41,19.25m-35.23-24c3.18-1.47,6.17-3.26,9.41-4.24a7.12,7.12,0,0,1,9.1,8.27c-1.39,7.09-3.12,14.11-4.51,21.19a2.88,2.88,0,0,0,0,.59c.12,1.89,1.68,3.19,3.42,2.46a6.27,6.27,0,0,0,1.58-1.16c2.94-4.11,5.43-8,8-12.32,2.91-4.85,5.14-10.19,8.53-14.66,4.53-6,9.93-6.21,16.22-2a19.73,19.73,0,0,0,6.31,2.69c2.74.65,3.92,1.72,3,4.66-1.67,5.55-3.36,11.12-4.62,16.77-.47,2.16-2.24,5.32.89,6.68,2.91,1.25,4.25-1.85,5.7-3.67a36,36,0,0,0,7.62-15.49A69,69,0,0,1,169.69,52c.61-1.74,1-4.42,2.87-4.56,2.44-.18,5,1.45,6.8,3.23.88.89.39,2.64.07,3.9-1.87,7.35-4,14.63-5.74,22a2.34,2.34,0,0,0,0,.75,2.9,2.9,0,0,0,4.71,2,2.5,2.5,0,0,0,.23-.23c4-4.54,7.54-9.39,8.85-15.56.91-4.28,2.19-8.48,3.39-12.7s3.28-4.87,6.4-1.68c.83.84,1.58,1.74,2.33,2.57,3.52-1.44,6.8-3.08,10.27-4.12,5.76-1.72,10.63,2.6,9.52,8.5-1.28,6.74-3.12,13.38-4.42,20.12a3.08,3.08,0,0,0,0,1,3,3,0,0,0,4.78,2.07,2,2,0,0,0,.4-.42c2.83-4,5.35-8.31,7.86-12.58,2.81-4.77,5-10,8.32-14.37,4.36-5.85,9.72-6.2,15.84-2.25a23.56,23.56,0,0,0,6.71,3c2.65.7,3.87,1.62,3.06,4.66-2,7.64-3.81,15.36-5.81,23.54,4.68-3.85,9.27-6.84,10.66-13.16a34.59,34.59,0,0,1,9.92-17.4c4.8-4.7,14.61-3.09,17.82,2.86A8.54,8.54,0,0,1,294.9,56a21.84,21.84,0,0,1-8.24,15.89c-1,.85-2.89.87-4.37.86a53.3,53.3,0,0,1-5.93-.7c-1.95,5.44,1.59,9.62,7.46,8.93,7.15-.84,10.92-6.11,14.6-11.43.47-.67.51-1,1.18-2.15.56-1,1.07-1.77,3.1-1.4,1.46.46,1.6,2.47,1.27,3.21-3.38,7.69-8.06,14.59-16.46,17.13-8.17,2.47-15.1-.74-20.73-6.9a1.53,1.53,0,0,0-.49-.3c-3.78,2.52-7.58,4.92-11.21,7.56a6.63,6.63,0,0,0-2,3.16c-2,5.58-3.63,11.27-5.7,16.81-1.63,4.36-5.23,6.33-10.14,6.11-4-.18-9.66-4.1-10.55-7.45s.82-5.79,3.33-7.64a88.37,88.37,0,0,1,10-6.79c3.23-1.78,5-4.18,5.17-7.09-3.1,1-6.68,3.28-9.83,2.8-3.35-.52-6.29-3.66-9.76-5.88-.3.35-1.14,1.42-2.09,2.39-2.77,2.84-5.86,4.78-10.12,3.77-7.63-1.8-9.86-5-8.29-12.64,1-4.76,2.47-9.4,3.4-14.16.3-1.55,0-4.36-.83-4.72a6,6,0,0,0-5.14.67,12.56,12.56,0,0,0-4.37,5.65c-2.19,6.88-3.94,13.9-5.68,20.92-1.24,5-3.31,5.82-7.54,2.69l-2.64-2c-7.29,5.48-11.3,5.2-19.35-1.8-6.25,6.87-11.16,8.13-20.25,1.17-4.08,1.56-7.81,4.24-11.3,4s-6.53-3.6-10.22-5.86c-.55.58-1.73,2-3.07,3.24a11.12,11.12,0,0,1-16.58-1.57,7.9,7.9,0,0,1-.91-5.35c1-6,2.46-11.83,3.51-17.78.23-1.3-.09-3.43-1-4s-3.17-.27-4.12.38c-3.93,2.71-4.58,4.36-5.47,7-2.26,6.73-3.69,13.72-5.53,20.59-.48,1.79-.29,4.32-3.53,3.66-3.67-.74-6-2.88-5.45-5.67,1.29-6.27,2.69-12.52,4.3-18.71,2.44-9.4,5.07-18.75,7.68-28.11.51-1.84.53-4.26,3.76-3.25,4.17,1.3,6.23,3.29,5.5,6.07-1.14,4.35-2.49,8.65-3.74,13a13,13,0,0,0-.25,1.5"/><path class="cls-2" d="M61.24,87.12c-12.53,0-21.72-10.61-20-22.16a66.27,66.27,0,0,1,13.9-31.88c8.22-10.36,18.31-6.59,25.31-.29A5.27,5.27,0,0,1,82,39.24c-1.21,2.7-2.55,5.34-3.8,8-1,2.16-2.5,2.62-4.62,1.49s-3.49-2.3-2.22-5a27.54,27.54,0,0,0,2.08-6.38c.56-3-1.17-4.77-4.06-3.84a12.27,12.27,0,0,0-5.73,3.82A57.42,57.42,0,0,0,51.34,70.82c-.1,2.51,1.52,5.45,3.16,7.56,2.46,3.18,5.7,3.22,8.67.48A55.07,55.07,0,0,0,69.3,72c1.53-2,2.93-1.92,4.81-.63S76.72,74,75.27,76C72.39,80.1,70.69,85.35,65,86.61a36.78,36.78,0,0,1-3.71.51"/><path class="cls-2" d="M185.24,35.28c-.08,4-2.61,7.71-5.26,7.71-3,0-5.41-1.93-5.33-4.36.12-4.06,2.65-7.8,5.25-7.77,3,0,5.39,2,5.34,4.42"/></g></g><text class="cls-3" transform="translate(365.69 85.2)">A sustainable bi<tspan class="cls-4" x="365.68" y="0">k</tspan><tspan x="391.83" y="0">e m</tspan><tspan class="cls-5" x="473.91" y="0">o</tspan><tspan class="cls-6" x="501.54" y="0">v</tspan><tspan x="526.58" y="0">ement</tspan></text></g></svg>
