<svg xmlns="http://www.w3.org/2000/svg" viewBox="0 0 169.55 149.9"><defs><style>.cls-1{fill:#8bbf43;}.cls-2{fill:#fff;}</style></defs><g id="colours"><g id="Logo-Border-5mm1"><g id="Layer-1"><circle class="cls-1" cx="68.52" cy="68.52" r="68.52"/><circle class="cls-1" cx="94.6" cy="74.95" r="74.95" transform="translate(-25.29 88.84) rotate(-45)"/><path class="cls-2" d="M80.4,112.07C63.19,112,50.58,97.5,53,81.63A91.1,91.1,0,0,1,72.05,37.85c11.29-14.23,25.15-9,34.76-.4,2.64,2.37,3.61,5.45,2.07,8.86-1.66,3.71-3.5,7.33-5.23,11-1.39,3-3.43,3.6-6.33,2s-4.8-3.15-3.06-6.88a37.2,37.2,0,0,0,2.86-8.77c.77-4.1-1.6-6.54-5.58-5.27a16.89,16.89,0,0,0-7.87,5.25,78.84,78.84,0,0,0-16.86,46c-.14,3.44,2.09,7.49,4.34,10.39,3.38,4.36,7.82,4.41,11.9.65a76,76,0,0,0,8.43-9.48c2.1-2.71,4-2.63,6.6-.86s3.59,3.64,1.6,6.45c-4,5.6-6.29,12.81-14.18,14.54-2.06.45-4.18.57-5.1.7"/><polygon class="cls-1" points="67.49 0.01 94.6 0 89.85 6.28 67.49 2.72 67.49 0.01"/></g></g><polygon class="cls-1" points="61.4 142.16 35.59 128.63 45.93 121.54 72.31 136.54 61.4 142.16"/></g></svg>
