<svg xmlns="http://www.w3.org/2000/svg" viewBox="0 0 476.39 224.48"><defs><style>.cls-1{fill:#8bbf43;}.cls-2{font-size:26.5px;font-family:Roboto-Bold, Roboto;font-weight:700;}.cls-2,.cls-3{fill:#fff;}</style></defs><g id="colours"><g id="Logo-Border-5mm1"><g id="Layer-1"><path class="cls-1" d="M28.7,22.71C30.46,20.93,49.45,2.6,85.18,3.38l291,.41h0s75.2.33,98,84.08v0s14.15,56.42-28.68,103.77a82.3,82.3,0,0,1-9.91,9.11c-26.27,21-61.4,28.43-94.69,20.73L71.36,159.22c-3.54-.54-57.52-9.62-68.88-63.71C2,93.6-7.15,53.77,28.7,22.71Z"/><text class="cls-2" transform="translate(228.46 185.06) rotate(13.02)">A</text><text class="cls-2" transform="matrix(0.97, 0.23, -0.23, 0.97, 247.64, 189.49)"> </text><text class="cls-2" transform="translate(255.9 191.4) rotate(13.02)">b</text><text class="cls-2" transform="translate(272.24 195.18) rotate(13.02)">i</text><text class="cls-2" transform="matrix(0.97, 0.23, -0.23, 0.97, 280.89, 197.18)">k</text><text class="cls-2" transform="translate(296.23 200.73) rotate(13.02)">e</text><text class="cls-2" transform="translate(312 204.37) rotate(13.02)"> </text><text class="cls-2" transform="translate(320.27 206.28) rotate(13.02)">m</text><text class="cls-2" transform="translate(345.21 212.24) rotate(6.94)">o</text><text class="cls-2" transform="matrix(1, -0.04, 0.04, 1, 363.1, 214.12)">v</text><text class="cls-2" transform="matrix(0.98, -0.2, 0.2, 0.98, 379.46, 213.28)">e</text><text class="cls-2" transform="translate(397.18 209.82) rotate(-23.6)">m</text><text class="cls-2" transform="translate(421.22 198.36) rotate(-36.37)">e</text><text class="cls-2" transform="translate(435.43 187.52) rotate(-48.12)">n</text><text class="cls-2" transform="translate(446.99 173.86) rotate(-56.36)">t</text><path class="cls-3" d="M332.92,134.63c.22-.91-.4-1.42-1-1.09-3.78,3.25-7.7,6.35-11.24,9.84-1.24,1.13-1,3.37-.28,4.28a3.72,3.72,0,0,0,4.17.76,12.1,12.1,0,0,0,4.8-4.32c1.58-2.94,2.39-6.29,3.53-9.47M380.6,95.37c-.16.33-.67,1.57,1.76,1.2,7.66-1.35,11.9-6.5,14.06-13.6a5.89,5.89,0,0,0-.1-4.19,2.21,2.21,0,0,0-1.68-1.11,4.75,4.75,0,0,0-4.54,1.74c-3.48,5.11-6.38,10.6-9.5,16m-55.35,11.17a7.66,7.66,0,0,0,1,5.36,3.57,3.57,0,0,0,1.19,1.22c1.26.72,3.66,0,5.29-.69a11.69,11.69,0,0,0,3.64-3.16c6.16-6.84,7.56-15.58,9.51-24.11.63-2.73,1.6-5.52-2-7-3.28-1.31-6-.63-8.12,2.3-5.49,7.58-8.77,16-10.45,26.05m-143.4.82a7.14,7.14,0,0,0,.67,4.17A3.37,3.37,0,0,0,183.8,113c1.35.72,3.78.3,5.31-.48,1.81-.91,3.85-2.44,4.6-4.21Q198.5,97,202.46,85.27c.82-2.41,1.7-5.6-2-7.08s-6.29-.37-8.44,2.73a58.57,58.57,0,0,0-10.17,26.44M133.46,74.45c4.37-2,8.48-4.47,12.92-5.83A9.78,9.78,0,0,1,158.88,80c-1.91,9.74-4.28,19.38-6.19,29.11a3.1,3.1,0,0,0,0,.81c.16,2.59,2.3,4.38,4.69,3.38a8.91,8.91,0,0,0,2.17-1.6c4.05-5.64,7.46-11,11-16.91,4-6.67,7.06-14,11.71-20.14,6.23-8.23,13.64-8.53,22.28-2.71a26.94,26.94,0,0,0,8.68,3.69c3.75.9,5.38,2.37,4.17,6.4-2.29,7.64-4.62,15.28-6.34,23-.66,3-3.09,7.3,1.22,9.16,4,1.72,5.83-2.54,7.82-5,5-6.3,8.87-13.2,10.47-21.27a93.56,93.56,0,0,1,3.6-13.14c.85-2.38,1.39-6.06,3.95-6.25,3.36-.25,6.93,2,9.34,4.44,1.21,1.22.53,3.62.09,5.36-2.56,10.08-5.46,20.08-7.87,30.2a3.14,3.14,0,0,0-.07,1,4,4,0,0,0,6.48,2.77,3.11,3.11,0,0,0,.32-.31c5.54-6.23,10.35-12.9,12.15-21.37,1.24-5.88,3-11.65,4.65-17.45,1.7-6,4.5-6.68,8.8-2.31,1.13,1.16,2.17,2.4,3.19,3.54,4.84-2,9.35-4.24,14.11-5.66,7.91-2.37,14.61,3.57,13.07,11.67-1.76,9.27-4.28,18.38-6.07,27.64a4.19,4.19,0,0,0,6.53,4.17,3.26,3.26,0,0,0,.54-.58c3.89-5.56,7.36-11.42,10.81-17.28,3.86-6.56,6.91-13.69,11.42-19.74,6-8,13.35-8.52,21.76-3.1a32.48,32.48,0,0,0,9.21,4.08c3.64,1,5.32,2.22,4.2,6.39-2.8,10.5-5.23,21.1-8,32.34,6.43-5.29,12.73-9.4,14.63-18.08a47.64,47.64,0,0,1,13.63-23.9c6.6-6.45,20.07-4.24,24.48,3.93a11.52,11.52,0,0,1,.6,3.93C405.24,89.46,402,96,394.81,102c-1.36,1.17-4,1.2-6,1.18a71.35,71.35,0,0,1-8.15-1c-2.68,7.48,2.17,13.21,10.24,12.27,9.82-1.15,15-8.4,20.06-15.7.64-.92.69-1.4,1.61-3,.77-1.31,1.48-2.43,4.26-1.92,2,.63,2.2,3.4,1.75,4.41-4.64,10.57-11.07,20-22.61,23.53-11.22,3.39-20.73-1-28.47-9.47a2.21,2.21,0,0,0-.67-.42c-5.2,3.46-10.42,6.76-15.4,10.38a9.15,9.15,0,0,0-2.69,4.34c-2.68,7.67-5,15.48-7.83,23.1-2.24,6-7.18,8.68-13.93,8.38-5.46-.24-13.26-5.63-14.48-10.23s1.12-7.95,4.56-10.5a123.81,123.81,0,0,1,13.74-9.32c4.44-2.44,6.83-5.74,7.11-9.73-4.27,1.35-9.18,4.5-13.5,3.84-4.61-.71-8.65-5-13.41-8.07-.42.48-1.57,2-2.87,3.28-3.81,3.9-8.05,6.56-13.91,5.18-10.47-2.48-13.54-6.89-11.38-17.37,1.35-6.53,3.4-12.91,4.67-19.45.41-2.12,0-6-1.14-6.48a8.23,8.23,0,0,0-7.06.92c-2.54,1.93-5.06,4.79-6,7.77-3,9.44-5.41,19.09-7.79,28.72-1.7,6.86-4.55,8-10.36,3.7l-3.63-2.69c-10,7.53-15.52,7.14-26.58-2.47-8.58,9.43-15.33,11.16-27.81,1.61-5.6,2.13-10.72,5.82-15.51,5.42s-9-5-14-8c-.75.79-2.36,2.75-4.21,4.45a15.25,15.25,0,0,1-22.76-2.16c-1.32-1.86-1.66-5-1.27-7.35,1.37-8.18,3.39-16.24,4.83-24.41.32-1.8-.13-4.71-1.31-5.52s-4.35-.37-5.65.52c-5.4,3.72-6.29,6-7.52,9.67-3.1,9.23-5.06,18.84-7.59,28.27-.66,2.46-.4,5.94-4.85,5-5-1-8.27-4-7.48-7.8,1.77-8.6,3.69-17.18,5.9-25.69,3.35-12.91,7-25.76,10.54-38.61.71-2.53.73-5.86,5.17-4.47,5.73,1.79,8.56,4.53,7.55,8.34-1.57,6-3.42,11.89-5.12,17.83a16.14,16.14,0,0,0-.35,2.06"/><path class="cls-3" d="M85.2,123C68,123,55.38,108.45,57.76,92.58A91.06,91.06,0,0,1,76.85,48.8c11.29-14.23,25.16-9,34.77-.4,2.63,2.37,3.6,5.44,2.07,8.86-1.67,3.7-3.51,7.33-5.24,11-1.39,3-3.43,3.61-6.33,2.06s-4.8-3.16-3.06-6.88a37.2,37.2,0,0,0,2.86-8.77c.77-4.1-1.6-6.55-5.58-5.27a16.81,16.81,0,0,0-7.86,5.25,78.85,78.85,0,0,0-16.87,46c-.13,3.44,2.09,7.48,4.34,10.39,3.38,4.36,7.83,4.41,11.9.65a76,76,0,0,0,8.43-9.48c2.1-2.71,4-2.63,6.61-.86s3.58,3.64,1.59,6.45c-4,5.6-6.29,12.81-14.18,14.53a49.91,49.91,0,0,1-5.1.7"/><path class="cls-3" d="M255.52,51.81c-.11,5.5-3.58,10.59-7.22,10.6-4.18,0-7.44-2.66-7.34-6,.18-5.58,3.66-10.72,7.22-10.67,4.15.06,7.4,2.74,7.34,6.06"/></g></g></g></svg>
